<svg xmlns="http://www.w3.org/2000/svg" data-name="Layer 37" viewBox="0 0 32 40" x="0px" y="0px">
  <path fill="#929292" stroke="#929292" stroke-width="2" d="m28.9995117,11.5c-.0698242,0-.1411133-.0146484-.2089844-.0458984l-12.7905273-5.9033203L3.2094727,11.4541016c-.2519531.1152344-.5483398.0058594-.6635742-.2441406-.1157227-.2509766-.0063477-.5478516.2446289-.6640625l13-6c.1328125-.0605469.2861328-.0605469.4189453,0l13,6c.2509766.1162109.3603516.4130859.2446289.6640625-.0844727.1826172-.265625.2900391-.4545898.2900391Zm-1.4995117,11.5c0-.2763672-.2236328-.5-.5-.5H5c-.2763672,0-.5.2236328-.5.5s.2236328.5.5.5h22c.2763672,0,.5-.2236328.5-.5Zm2,4c0-.2763672-.2236328-.5-.5-.5H3c-.2763672,0-.5.2236328-.5.5s.2236328.5.5.5h26c.2763672,0,.5-.2236328.5-.5Zm-13-7v-8c0-.2763672-.2236328-.5-.5-.5s-.5.2236328-.5.5v8c0,.2763672.2236328.5.5.5s.5-.2236328.5-.5Zm9,0v-8c0-.2763672-.2236328-.5-.5-.5s-.5.2236328-.5.5v8c0,.2763672.2236328.5.5.5s.5-.2236328.5-.5Zm-18,0v-8c0-.2763672-.2236328-.5-.5-.5s-.5.2236328-.5.5v8c0,.2763672.2236328.5.5.5s.5-.2236328.5-.5Z"/>
</svg>
