<svg xmlns="http://www.w3.org/2000/svg" viewBox="0 0 1840.27 427.34"><g id="Layer_2" data-name="Layer 2"><g id="OBJECTS"><g style="opacity:0.3"><path d="M257.25,350.67q0,16.93-9.59,27.08t-24.82,10.16c-9.7,0-17.67-3.13-23.94-9.31a100.18,100.18,0,0,1-27.27,50c-.62.63-1.26,1.21-1.9,1.81q22.07,13.85,52.54,13.86,41.74,0,67.7-25.95t25.95-67.7V273.48H257.25Z" transform="translate(0 -16.98)"/><path d="M290,42.93Q264,17,222.27,17q-30.48,0-52.54,13.86c.64.6,1.28,1.19,1.9,1.81A100.18,100.18,0,0,1,198.9,82.7c6.27-6.18,14.24-9.31,23.94-9.31q15.22,0,24.82,10.16t9.59,27.08v77.19h58.67V110.63Q315.92,68.87,290,42.93Z" transform="translate(0 -16.98)"/></g><path d="M187.3,187.82V110.63q0-41.76-26-67.7T93.65,17q-41.76,0-67.7,26T0,110.63v240q0,41.76,26,67.7t67.7,25.95q41.75,0,67.7-25.95t26-67.7V273.48H128.63v77.19q0,16.93-9.59,27.08T94.21,387.91q-15.22,0-24.82-10.16T59.8,350.67v-240q0-16.92,9.59-27.08T94.21,73.39q15.24,0,24.83,10.16t9.59,27.08v77.19Z" transform="translate(0 -16.98)"/><g style="opacity:0.85"><path d="M578.83,162.23l-25.26,24.08q-25.77-27.24-58-27.24-27.18,0-45.8,18.59t-18.62,45.82q0,19,8.25,33.7a59,59,0,0,0,23.32,23.1,67.65,67.65,0,0,0,33.5,8.39A69,69,0,0,0,525,282.8q13-5.88,28.6-21.36L578.05,287q-21,20.52-39.72,28.45t-42.68,7.93q-44.23,0-72.41-28.05t-28.18-71.89q0-28.36,12.83-50.42t36.76-35.46a103.54,103.54,0,0,1,51.52-13.42,109.43,109.43,0,0,1,82.66,38.11Z" transform="translate(0 -16.98)"/><path d="M710.1,178.29h35.21v140.3H710.1V303.76q-10.3,9.8-20.67,14.12A57.84,57.84,0,0,1,667,322.2q-27.16,0-47-21.08T600.1,248.7q0-32.5,19.2-53.26t46.62-20.77a59.25,59.25,0,0,1,23.7,4.78,64.62,64.62,0,0,1,20.48,14.31Zm-37,28.88q-16.33,0-27.12,11.54t-10.8,29.6q0,18.18,11,29.92A35.6,35.6,0,0,0,673.22,290q16.59,0,27.51-11.54t10.92-30.24q0-18.31-10.92-29.66T673.1,207.17Z" transform="translate(0 -16.98)"/><path d="M794.63,120.51a21.51,21.51,0,0,1,15.88,6.71,22.26,22.26,0,0,1,6.63,16.25,22,22,0,0,1-6.56,16.05,21.26,21.26,0,0,1-15.69,6.64,21.55,21.55,0,0,1-16-6.77A22.64,22.64,0,0,1,772.26,143a22.43,22.43,0,0,1,22.37-22.44ZM777,178.29h35.21v140.3H777Z" transform="translate(0 -16.98)"/><path d="M836,178.29h30.18V196q4.9-10.44,13-15.86A31.4,31.4,0,0,1,897,174.67a32.93,32.93,0,0,1,14.32,3.62l-11,30.3q-6.18-3.09-10.18-3.09-8.13,0-13.74,10.05T870.78,255l.13,6.84v56.74H836Z" transform="translate(0 -16.98)"/><path d="M994.58,174.67a74.35,74.35,0,0,1,37.33,9.93A72.82,72.82,0,0,1,1069,248.31a73.66,73.66,0,0,1-9.87,37.14,71.08,71.08,0,0,1-26.88,27,74.28,74.28,0,0,1-37.53,9.74q-30.18,0-51.52-21.47t-21.34-52.16q0-32.9,24.11-54.81Q967.11,174.68,994.58,174.67Zm.58,33.15q-16.41,0-27.32,11.41t-10.91,29.21q0,18.31,10.78,29.66T995,289.45q16.53,0,27.52-11.48t11-29.53q0-18.06-10.79-29.34T995.16,207.82Z" transform="translate(0 -16.98)"/><path d="M1318.25,162.23,1293,186.31q-25.77-27.24-58-27.24-27.19,0-45.81,18.59t-18.61,45.82q0,19,8.24,33.7a59.09,59.09,0,0,0,23.32,23.1,67.65,67.65,0,0,0,33.5,8.39,68.94,68.94,0,0,0,28.73-5.87q13-5.88,28.61-21.36L1317.48,287q-21,20.52-39.72,28.45t-42.69,7.93q-44.22,0-72.4-28.05t-28.18-71.89q0-28.36,12.83-50.42t36.75-35.46a103.57,103.57,0,0,1,51.52-13.42,109.39,109.39,0,0,1,82.66,38.11Z" transform="translate(0 -16.98)"/><path d="M1411.87,174.67a74.39,74.39,0,0,1,37.34,9.93,72.84,72.84,0,0,1,37.07,63.71,73.75,73.75,0,0,1-9.86,37.14,71.18,71.18,0,0,1-26.89,27A74.28,74.28,0,0,1,1412,322.2q-30.18,0-51.52-21.47t-21.34-52.16q0-32.9,24.12-54.81Q1384.41,174.68,1411.87,174.67Zm.58,33.15q-16.4,0-27.32,11.41t-10.91,29.21q0,18.31,10.78,29.66t27.33,11.35q16.53,0,27.51-11.48t11-29.53q0-18.06-10.79-29.34T1412.45,207.82Z" transform="translate(0 -16.98)"/><path d="M1528.77,120.51a21.53,21.53,0,0,1,15.88,6.71,22.26,22.26,0,0,1,6.63,16.25,22,22,0,0,1-6.56,16.05,21.28,21.28,0,0,1-15.69,6.64,21.54,21.54,0,0,1-16-6.77A22.6,22.6,0,0,1,1506.4,143a22.43,22.43,0,0,1,22.37-22.44Zm-17.6,57.78h35.21v140.3h-35.21Z" transform="translate(0 -16.98)"/><path d="M1578.36,178.29h35.2v14.37q12-10.09,21.7-14a52.45,52.45,0,0,1,19.89-4,48.16,48.16,0,0,1,35.42,14.58q12.23,12.38,12.23,36.62v92.72H1668V257.15q0-25.12-2.25-33.36t-7.85-12.56a22,22,0,0,0-13.83-4.32,25.93,25.93,0,0,0-18.33,7.15q-7.65,7.16-10.61,19.78-1.54,6.57-1.55,28.46v56.29h-35.2Z" transform="translate(0 -16.98)"/></g><path d="M1771.2,99.54V58h27.67V99.54h41.4v27.68h-41.4v41.4H1771.2v-41.4h-41.4V99.54Z" transform="translate(0 0)" style="fill:#353535"/></g></g></svg>