<svg xmlns="http://www.w3.org/2000/svg" viewBox="0 0 2340.68 428.57"><g id="Layer_2" data-name="Layer 2"><g id="OBJECTS"><g style="opacity:0.2"><path d="M257.25,414.3q0,16.92-9.59,27.08t-24.82,10.15c-9.7,0-17.67-3.12-23.94-9.3a100.18,100.18,0,0,1-27.27,50c-.62.62-1.26,1.2-1.9,1.81Q191.8,507.92,222.27,508,264,508,290,482t25.95-67.7V337.11H257.25Z" transform="translate(0 -79.38)" style="fill:#fff"/><path d="M290,106.56q-26-26-67.7-25.95-30.48,0-52.54,13.86c.64.6,1.28,1.18,1.9,1.8a100.22,100.22,0,0,1,27.27,50.06c6.27-6.18,14.24-9.31,23.94-9.31q15.22,0,24.82,10.16t9.59,27.08v77.19h58.67V174.26Q315.92,132.5,290,106.56Z" transform="translate(0 -79.38)" style="fill:#fff"/></g><path d="M187.3,251.45V174.26q0-41.76-26-67.7T93.65,80.61q-41.76,0-67.7,26T0,174.26v240Q0,456.06,26,482T93.65,508q41.75,0,67.7-25.95t26-67.7V337.11H128.63V414.3q0,16.92-9.59,27.08T94.21,451.53q-15.22,0-24.82-10.15T59.8,414.3v-240q0-16.94,9.59-27.08T94.21,137q15.24,0,24.83,10.16t9.59,27.08v77.19Z" transform="translate(0 -79.38)" style="fill:#fff"/><path d="M738,216.82l-32.19,30.69Q673,212.8,631.91,212.79q-34.67,0-58.39,23.7t-23.74,58.42q0,24.19,10.51,42.95A75.36,75.36,0,0,0,590,367.32,86.36,86.36,0,0,0,632.73,378a88,88,0,0,0,36.63-7.49q16.59-7.48,36.47-27.24L737,375.86Q710.23,402,686.4,412.13T632,422.24q-56.38,0-92.31-35.76t-35.92-91.65q0-36.16,16.36-64.28T567,185.34a132.11,132.11,0,0,1,65.68-17.1A139.43,139.43,0,0,1,738,216.82Z" transform="translate(0 -79.38)" style="fill:#fff"/><path d="M905.38,237.29h44.88V416.16H905.38V397.25q-13.14,12.5-26.35,18a73.85,73.85,0,0,1-28.66,5.51q-34.65,0-59.93-26.88t-25.29-66.83q0-41.43,24.47-67.9t59.44-26.46a75.43,75.43,0,0,1,30.21,6.08A82.29,82.29,0,0,1,905.38,257ZM858.2,274.11q-20.81,0-34.57,14.72t-13.76,37.73q0,23.18,14,38.14a45.41,45.41,0,0,0,34.49,15q21.15,0,35.07-14.71t13.93-38.56q0-23.34-13.93-37.81T858.2,274.11Z" transform="translate(0 -79.38)" style="fill:#fff"/><path d="M1013.15,163.64a27.43,27.43,0,0,1,20.24,8.55,28.38,28.38,0,0,1,8.45,20.71,28.06,28.06,0,0,1-8.37,20.47,27.12,27.12,0,0,1-20,8.46,27.5,27.5,0,0,1-20.42-8.63,28.89,28.89,0,0,1-8.44-21,28.58,28.58,0,0,1,28.53-28.6Zm-22.44,73.65h44.88V416.16H990.71Z" transform="translate(0 -79.38)" style="fill:#fff"/><path d="M1065.84,237.29h38.47v22.52q6.24-13.32,16.6-20.22a40.1,40.1,0,0,1,22.69-6.9,42,42,0,0,1,18.25,4.6l-14,38.63q-7.91-3.94-13-3.94-10.37,0-17.51,12.82t-7.15,50.31l.16,8.71v72.34h-44.55Z" transform="translate(0 -79.38)" style="fill:#fff"/><path d="M1268.05,232.69a94.9,94.9,0,0,1,47.6,12.65,92.81,92.81,0,0,1,47.26,81.22,94,94,0,0,1-12.57,47.35,90.85,90.85,0,0,1-34.28,34.44,94.73,94.73,0,0,1-47.84,12.41q-38.48,0-65.68-27.37t-27.21-66.5q0-41.92,30.74-69.87Q1233,232.69,1268.05,232.69Zm.74,42.25q-20.91,0-34.83,14.55t-13.91,37.23q0,23.36,13.75,37.82T1268.63,379q21.07,0,35.08-14.63t14-37.65q0-23-13.75-37.4T1268.79,274.94Z" transform="translate(0 -79.38)" style="fill:#fff"/><path d="M1680.69,216.82l-32.2,30.69q-32.85-34.71-73.91-34.72-34.66,0-58.4,23.7t-23.73,58.42q0,24.19,10.51,42.95a75.36,75.36,0,0,0,29.73,29.46A86.33,86.33,0,0,0,1575.4,378a88.12,88.12,0,0,0,36.63-7.49q16.58-7.48,36.46-27.24l31.21,32.57q-26.81,26.14-50.64,36.27t-54.41,10.11q-56.4,0-92.31-35.76t-35.93-91.65q0-36.16,16.36-64.28t46.86-45.21a132.1,132.1,0,0,1,65.67-17.1,139.43,139.43,0,0,1,105.39,48.58Z" transform="translate(0 -79.38)" style="fill:#fff"/><path d="M1800,232.69a94.93,94.93,0,0,1,47.6,12.65,92.81,92.81,0,0,1,47.26,81.22,94,94,0,0,1-12.57,47.35,90.92,90.92,0,0,1-34.28,34.44,94.73,94.73,0,0,1-47.84,12.41q-38.48,0-65.68-27.37t-27.21-66.5q0-41.92,30.74-69.87Q1765,232.69,1800,232.69Zm.74,42.25q-20.91,0-34.83,14.55T1752,326.72q0,23.36,13.75,37.82T1800.62,379q21.08,0,35.07-14.63t14-37.65q0-23-13.75-37.4T1800.78,274.94Z" transform="translate(0 -79.38)" style="fill:#fff"/><path d="M1949.07,163.64a27.45,27.45,0,0,1,20.25,8.55,29.43,29.43,0,0,1,.08,41.18,27.13,27.13,0,0,1-20,8.46A27.48,27.48,0,0,1,1929,213.2a28.85,28.85,0,0,1-8.44-21,28.58,28.58,0,0,1,28.52-28.6Zm-22.44,73.65h44.88V416.16h-44.88Z" transform="translate(0 -79.38)" style="fill:#fff"/><path d="M2012.29,237.29h44.88v18.33q15.26-12.87,27.66-17.9a66.75,66.75,0,0,1,25.36-5q26.59,0,45.15,18.57Q2170.93,267,2170.93,298V416.16h-44.39V337.83q0-32-2.87-42.53t-10-16q-7.14-5.51-17.63-5.5a33,33,0,0,0-23.37,9.11q-9.77,9.12-13.54,25.21-2,8.37-2,36.29v71.76h-44.88Z" transform="translate(0 -79.38)" style="fill:#fff"/><path d="M2246.19,136.16V79.38h37.86v56.78h56.63V174h-56.63v56.63h-37.86V174h-56.63V136.16Z" transform="translate(0 -79.38)" style="fill:#fff"/></g></g></svg>